<svg id="Layer_1" data-name="Layer 1" xmlns="http://www.w3.org/2000/svg" xmlns:xlink="http://www.w3.org/1999/xlink" viewBox="0 0 68 68"><defs><style>.cls-1,.cls-3{fill:none;}.cls-2{opacity:0.5;}.cls-3{stroke:#7b7b7b;stroke-miterlimit:10;}.cls-4{fill:url(#Unnamed_Pattern);}</style><pattern id="Unnamed_Pattern" data-name="Unnamed Pattern" width="68" height="68" patternTransform="translate(-18 -8.01)" patternUnits="userSpaceOnUse" viewBox="0 0 68 68"><rect class="cls-1" width="68" height="68"/><g class="cls-2"><line class="cls-3" x1="57.02" y1="40.02" x2="78.98" y2="61.98"/></g><g class="cls-2"><line class="cls-3" x1="57.02" y1="61.98" x2="78.98" y2="40.02"/></g><g class="cls-2"><line class="cls-3" x1="68" y1="35.48" x2="68" y2="66.52"/></g><g class="cls-2"><line class="cls-3" x1="52.48" y1="51" x2="83.52" y2="51"/></g><g class="cls-2"><line class="cls-3" x1="23.02" y1="57.02" x2="44.98" y2="78.98"/></g><g class="cls-2"><line class="cls-3" x1="23.02" y1="78.98" x2="44.98" y2="57.02"/></g><g class="cls-2"><line class="cls-3" x1="34" y1="52.48" x2="34" y2="83.52"/></g><g class="cls-2"><line class="cls-3" x1="18.48" y1="68" x2="49.52" y2="68"/></g><g class="cls-2"><line class="cls-3" x1="-10.98" y1="40.02" x2="10.98" y2="61.98"/></g><g class="cls-2"><line class="cls-3" x1="-10.98" y1="61.98" x2="10.98" y2="40.02"/></g><g class="cls-2"><line class="cls-3" y1="35.48" y2="66.52"/></g><g class="cls-2"><line class="cls-3" x1="-15.52" y1="51" x2="15.52" y2="51"/></g><g class="cls-2"><line class="cls-3" x1="57.02" y1="6.02" x2="78.98" y2="27.98"/></g><g class="cls-2"><line class="cls-3" x1="57.02" y1="27.98" x2="78.98" y2="6.02"/></g><g class="cls-2"><line class="cls-3" x1="68" y1="1.48" x2="68" y2="32.52"/></g><g class="cls-2"><line class="cls-3" x1="52.48" y1="17" x2="83.52" y2="17"/></g><g class="cls-2"><line class="cls-3" x1="23.02" y1="23.02" x2="44.98" y2="44.98"/></g><g class="cls-2"><line class="cls-3" x1="23.02" y1="44.98" x2="44.98" y2="23.02"/></g><g class="cls-2"><line class="cls-3" x1="34" y1="18.48" x2="34" y2="49.52"/></g><g class="cls-2"><line class="cls-3" x1="18.48" y1="34" x2="49.52" y2="34"/></g><g class="cls-2"><line class="cls-3" x1="-10.98" y1="6.02" x2="10.98" y2="27.98"/></g><g class="cls-2"><line class="cls-3" x1="-10.98" y1="27.98" x2="10.98" y2="6.02"/></g><g class="cls-2"><line class="cls-3" y1="1.48" y2="32.52"/></g><g class="cls-2"><line class="cls-3" x1="-15.52" y1="17" x2="15.52" y2="17"/></g><g class="cls-2"><line class="cls-3" x1="23.02" y1="-10.98" x2="44.98" y2="10.98"/></g><g class="cls-2"><line class="cls-3" x1="23.02" y1="10.98" x2="44.98" y2="-10.98"/></g><g class="cls-2"><line class="cls-3" x1="34" y1="-15.52" x2="34" y2="15.52"/></g><g class="cls-2"><line class="cls-3" x1="18.48" x2="49.52"/></g></pattern></defs><title>star-staggered</title><rect class="cls-4" width="68" height="68"/></svg>